<svg width="66" height="42" viewBox="0 0 66 42" fill="none" xmlns="http://www.w3.org/2000/svg">
<path d="M0 20.94C0 9.75218 9.06956 0.682617 20.2574 0.682617H45.7426C56.9304 0.682617 66 9.75218 66 20.94C66 32.1279 56.9304 41.1975 45.7426 41.1975H20.2574C16.4062 41.1975 12.806 40.1228 9.74029 38.2569C8.59174 37.5578 1.63704 42.1037 0.653465 41.1975C-0.174975 40.4342 4.94158 34.2467 4.24966 33.3559C1.58599 29.9266 0 25.6185 0 20.94Z" fill="url(#paint0_linear_403_324)"/>
<path d="M46.9597 15.5554C47.1046 15.1926 47.6726 15.1841 47.825 15.5438C48.2911 16.6443 49.0679 18.2645 49.9038 19.1004C50.7011 19.8977 52.0842 20.5134 53.0735 20.8813C53.44 21.0176 53.4675 21.5903 53.1136 21.7567C52.1314 22.2186 50.7358 22.963 49.9038 23.795C49.0247 24.6741 48.2434 26.1824 47.7898 27.1674C47.6347 27.5042 47.1171 27.5042 46.962 27.1674C46.5084 26.1824 45.7271 24.6741 44.848 23.795C44.0073 22.9543 42.5911 22.2031 41.6075 21.7423C41.2566 21.5779 41.2794 21.0166 41.6415 20.8785C42.6251 20.5036 44.0209 19.8789 44.848 19.1004C45.784 18.2195 46.5276 16.6375 46.9597 15.5554Z" fill="white" fill-opacity="0.6"/>
<circle cx="29.0002" cy="21.6829" r="4" fill="white" fill-opacity="0.6"/>
<circle cx="16.0002" cy="21.6829" r="4" fill="white" fill-opacity="0.6"/>
<defs>
<linearGradient id="paint0_linear_403_324" x1="33.3267" y1="41.1975" x2="32.3465" y2="0.0291559" gradientUnits="userSpaceOnUse">
<stop stop-color="#5599FF"/>
<stop offset="0.836794" stop-color="#7241FF"/>
<stop offset="1" stop-color="#8E66FF"/>
</linearGradient>
</defs>
</svg>
