<svg width="179" height="19" viewBox="0 0 179 19" fill="none" xmlns="http://www.w3.org/2000/svg">
<path d="M5.592 18L0.36 0.456H3.552L6.336 9.72C6.48 10.2 6.616 10.712 6.744 11.256C6.872 11.784 7 12.432 7.128 13.2C7.272 12.416 7.408 11.768 7.536 11.256C7.68 10.728 7.824 10.216 7.968 9.72L10.752 0.456H14.136L16.848 9.72C16.992 10.216 17.128 10.736 17.256 11.28C17.4 11.824 17.544 12.464 17.688 13.2C17.848 12.384 17.992 11.72 18.12 11.208C18.264 10.68 18.4 10.2 18.528 9.768L21.36 0.456H24.48L19.152 18H16.176L12.432 5.232L8.592 18H5.592ZM42.5955 9.216C42.5955 10.992 42.2355 12.568 41.5155 13.944C40.7955 15.304 39.7955 16.368 38.5155 17.136C37.2355 17.904 35.7555 18.288 34.0755 18.288C32.4115 18.288 30.9395 17.904 29.6595 17.136C28.3795 16.368 27.3795 15.304 26.6595 13.944C25.9555 12.584 25.6035 11.016 25.6035 9.24C25.6035 7.448 25.9635 5.872 26.6835 4.512C27.4035 3.136 28.3955 2.064 29.6595 1.296C30.9395 0.527999 32.4195 0.144 34.0995 0.144C35.7795 0.144 37.2515 0.527999 38.5155 1.296C39.7955 2.064 40.7955 3.128 41.5155 4.488C42.2355 5.848 42.5955 7.424 42.5955 9.216ZM39.3795 9.216C39.3795 7.968 39.1635 6.888 38.7315 5.976C38.2995 5.064 37.6915 4.36 36.9075 3.864C36.1235 3.352 35.1875 3.096 34.0995 3.096C33.0275 3.096 32.0915 3.352 31.2915 3.864C30.5075 4.36 29.8995 5.064 29.4675 5.976C29.0355 6.888 28.8195 7.968 28.8195 9.216C28.8195 10.464 29.0355 11.552 29.4675 12.48C29.8995 13.392 30.5075 14.096 31.2915 14.592C32.0915 15.088 33.0275 15.336 34.0995 15.336C35.1875 15.336 36.1235 15.088 36.9075 14.592C37.6915 14.08 38.2995 13.368 38.7315 12.456C39.1635 11.528 39.3795 10.448 39.3795 9.216ZM48.9827 18H45.9587V0.456H49.0067L58.1267 14.256H57.2387V0.456H60.2627V18H57.2387L48.0947 4.224H48.9827V18ZM70.9382 18H64.6262V0.456H70.7702C72.4982 0.456 74.0182 0.832 75.3302 1.584C76.6422 2.32 77.6662 3.352 78.4022 4.68C79.1542 5.992 79.5302 7.52 79.5302 9.264C79.5302 10.976 79.1622 12.496 78.4262 13.824C77.7062 15.136 76.6982 16.16 75.4022 16.896C74.1222 17.632 72.6342 18 70.9382 18ZM67.6982 1.872V16.608L66.2342 15.168H70.6502C71.8182 15.168 72.8262 14.928 73.6742 14.448C74.5222 13.968 75.1702 13.288 75.6182 12.408C76.0662 11.528 76.2902 10.48 76.2902 9.264C76.2902 8.016 76.0582 6.952 75.5942 6.072C75.1302 5.176 74.4662 4.488 73.6022 4.008C72.7382 3.528 71.6982 3.288 70.4822 3.288H66.2342L67.6982 1.872ZM93.7678 18H82.8718V0.456H93.7678V3.288H84.8638L85.9438 2.304V7.8H92.9518V10.512H85.9438V16.152L84.8638 15.168H93.7678V18ZM100.627 18H97.5549V0.456H104.251C106.235 0.456 107.779 0.936 108.883 1.896C110.003 2.856 110.563 4.2 110.563 5.928C110.563 7.096 110.291 8.096 109.747 8.928C109.219 9.744 108.435 10.368 107.395 10.8L110.731 18H107.371L104.395 11.448H100.627V18ZM100.627 3.192V8.736H104.251C105.227 8.736 105.987 8.488 106.531 7.992C107.075 7.496 107.347 6.808 107.347 5.928C107.347 5.048 107.075 4.376 106.531 3.912C105.987 3.432 105.227 3.192 104.251 3.192H100.627Z" fill="white"/>
<path d="M120.953 18.288C119.401 18.288 118.073 17.96 116.969 17.304C115.865 16.648 115.009 15.736 114.401 14.568C113.809 13.4 113.513 12.064 113.513 10.56C113.513 9.056 113.745 7.672 114.209 6.408C114.689 5.128 115.353 4.024 116.201 3.096C117.065 2.152 118.073 1.432 119.225 0.935999C120.377 0.423999 121.641 0.167999 123.017 0.167999C124.393 0.167999 125.593 0.431999 126.617 0.959999C127.641 1.472 128.441 2.192 129.017 3.12C129.609 4.048 129.929 5.12 129.977 6.336H126.857C126.745 5.616 126.497 5.016 126.113 4.536C125.745 4.04 125.265 3.672 124.673 3.432C124.081 3.176 123.417 3.048 122.681 3.048C121.769 3.048 120.937 3.232 120.185 3.6C119.449 3.952 118.817 4.464 118.289 5.136C117.761 5.792 117.353 6.568 117.065 7.464C116.777 8.36 116.633 9.336 116.633 10.392C116.633 11.384 116.809 12.256 117.161 13.008C117.529 13.76 118.041 14.344 118.697 14.76C119.369 15.176 120.161 15.384 121.073 15.384C122.273 15.384 123.281 15.128 124.097 14.616C124.929 14.104 125.585 13.28 126.065 12.144H129.305C128.617 14.16 127.561 15.688 126.137 16.728C124.713 17.768 122.985 18.288 120.953 18.288ZM134.562 18H131.61L134.394 0.456H137.322L136.17 7.776H143.874L145.026 0.456H147.978L145.194 18H142.266L143.442 10.512H135.762L134.562 18ZM151.087 18H147.871L156.871 0.456H159.919L163.351 18H160.351L159.607 13.896H153.151L151.087 18ZM157.351 5.496L154.399 11.376H159.151L158.071 5.496C158.039 5.32 157.999 5.104 157.951 4.848C157.919 4.592 157.903 4.376 157.903 4.2C157.855 4.36 157.775 4.56 157.663 4.8C157.567 5.04 157.463 5.272 157.351 5.496ZM173.211 1.752L170.643 18H167.715L170.283 1.752H173.211ZM165.027 3.192L165.459 0.456H178.443L178.011 3.192H165.027Z" fill="url(#paint0_linear_403_330)"/>
<defs>
<linearGradient id="paint0_linear_403_330" x1="118.979" y1="1.14464" x2="166.879" y2="34.6999" gradientUnits="userSpaceOnUse">
<stop offset="0.0695937" stop-color="#4467FF"/>
<stop offset="1" stop-color="#7241FF"/>
</linearGradient>
</defs>
</svg>
