<svg width="21" height="19" viewBox="0 0 21 19" fill="none" xmlns="http://www.w3.org/2000/svg">
<path fill-rule="evenodd" clip-rule="evenodd" d="M5.5019 0C5.5019 0 5.72261 2.06 6.58228 2.91968C7.44196 3.77935 9.50196 4.00005 9.50196 4.00005C9.50196 4.00005 7.44196 4.22076 6.58228 5.08043C5.72261 5.9401 5.5019 8.00011 5.5019 8.00011C5.5019 8.00011 5.2812 5.9401 4.42153 5.08043C3.56185 4.22076 1.50185 4.00005 1.50185 4.00005C1.50185 4.00005 3.56185 3.77935 4.42153 2.91968C5.2812 2.06 5.5019 0 5.5019 0ZM14.4993 2.99991C14.4993 2.99991 14.8304 6.08991 16.1199 7.37942C17.4094 8.66893 20.4994 8.99999 20.4994 8.99999C20.4994 8.99999 17.4094 9.33105 16.1199 10.6206C14.8304 11.9101 14.4993 15.0001 14.4993 15.0001C14.4993 15.0001 14.1683 11.9101 12.8788 10.6206C11.5893 9.33104 8.49926 8.99999 8.49926 8.99999C8.49926 8.99999 11.5893 8.66893 12.8788 7.37942C14.1683 6.08991 14.4993 2.99991 14.4993 2.99991ZM6.85072 12.6493C5.77613 11.5747 5.50025 8.99972 5.50025 8.99972C5.50025 8.99972 5.22437 11.5747 4.14978 12.6493C3.07519 13.7239 0.500183 13.9998 0.500183 13.9998C0.500183 13.9998 3.07519 14.2757 4.14978 15.3503C5.22437 16.4249 5.50025 18.9999 5.50025 18.9999C5.50025 18.9999 5.77613 16.4249 6.85072 15.3503C7.92531 14.2757 10.5003 13.9998 10.5003 13.9998C10.5003 13.9998 7.92531 13.7239 6.85072 12.6493Z" fill="url(#paint0_linear_1_937)"/>
<defs>
<linearGradient id="paint0_linear_1_937" x1="1.85307" y1="1.49999" x2="21.609" y2="3.32559" gradientUnits="userSpaceOnUse">
<stop offset="0.0695937" stop-color="#4467FF"/>
<stop offset="0.816425" stop-color="#7241FF"/>
</linearGradient>
</defs>
</svg>
